<svg xmlns="http://www.w3.org/2000/svg" width="220" height="60" fill="none">
<path fill="#000" fill-rule="evenodd" d="M42.869 54.02h-7.77V55h16.59v-.98h-7.77V29h7.755l9.045 26.07L69.709 29h7.88v25.02h-7.77V55h22.54v-
.98h-7.77V29h19.468v25.02h-7.77V55h22.54v-.98h-7.77V29.8h5.67c1.68 0 3.033.303 4.06.91 1.073.56 1.913 1.33 2.52 2.31.653.98 1.143 2.1 1.47 3.36a80.02 80.02 0 0 1 1.05 3.92h.77V29h24.15v25.02h-7.77V55H157.607c.746.047 1.47.093 2.17.14.7.047 1.353.07 1.96.07.653.047 1.306.07 1.96.07 3.22 0 6.043-.35 8.47-1.05 2.426-.747 
4.433-1.75 6.02-3.01 1.586-1.26 2.776-2.753 3.57-4.48.793-1.773 1.19-3.71 1.19-5.81 0-2.007-.444-3.78-1.33-5.32a12.032 12.032 0 0 0-3.5-3.85c-1.4-1.073-2.987-1.89-4.76-2.45a23.149 23.149 0 0 0-.947-.31h16.532c.787 2.336 1.732 4.36 2.836 6.075 1.212 1.883 2.623 3.433 4.234 4.65a18.4 18.4 0 0 0 5.381 2.8c1.976.65 4.118 
1.042 6.426 1.175l1.57.1-.1-1.45c-.1-1.5-.573-3.225-1.42-5.175-.847-1.95-1.735-3.492-2.665-4.625 2.424-.067 5.026-.567 7.806-1.5 2.779-.933 5.109-2.15 6.99-3.65-1.881-1.5-4.194-2.717-6.94-3.65-2.747-.933-5.332-1.433-7.757-1.5 1.063-1.233 1.968-2.858 2.716-4.875.747-2.017 1.17-3.692 1.27-5.025l.1-1.35-1.47.1c-3.238.233-6.
02.892-8.345 1.975-2.325 1.083-4.251 2.425-5.779 4.025-1.528 1.6-2.699 3.373-3.513 5.32a21.777 21.777 0 0 0-1.531 5.58h-20.105a17.725 17.725 0 0 0 4.291-1.14c1.493-.607 2.8-1.4 3.92-2.38a10.718 10.718 0 0 0 2.73-3.43c.7-1.307 1.05-2.73 1.05-4.27 0-1.12-.234-2.357-.7-3.71-.467-1.4-1.33-2.683-2.59-3.85-1.26-1.213-2.987-2.217-5.18
-3.01-2.194-.84-4.994-1.26-8.4-1.26-.654 0-1.33.023-2.03.07h-2.17l-2.24.14h-14.35v.98h7.77V28h-24.15v-9.47h-.77c-.513 2.1-1.05 3.827-1.61 5.18-.513 1.307-1.167 2.357-1.96 3.15a5.737 5.737 0 0 1-1.62 1.14h-9.58V6.14h11.62c1.913 0 3.547.233 4.9.7a9.05 9.05 0 0 1 3.5 2.17c.98.933 1.82 2.1 2.52 3.5.7 1.353 1.353 2.94 1.96 4.76h.77V5.
16h-40.04v.98h7.77V28H84.589V6.14h7.77v-.98h-15.47L69.035 28H58.703L50.849 5.16h-15.75v.98h7.77V28h-11.81c-.788-2.336-1.733-4.36-2.837-6.075-1.212-1.883-2.623-3.433-4.234-4.65a18.391 18.391 0 0 0-5.38-2.8c-1.977-.65-4.119-1.042-6.427-1.175l-1.57-.1.1 1.45c.1 1.5.573 3.225 1.42 5.175.847 1.95 1.735 3.492 2.665 4.625-2.424.067-5.026.567
-7.806 1.5-2.78.933-5.11 2.15-6.99 3.65 1.88 1.5 4.194 2.717 6.94 3.65 2.747.933 5.332 1.433 7.757 1.5-1.063 1.233-1.968 2.858-2.716 4.875-.747 2.017-1.17 3.692-1.27 5.025l-.1 1.35 1.47-.1c3.238-.233 6.02-.892 8.345-1.975 2.325-1.083 4.251-2.425 5.779-4.025 1.528-1.6 2.699-3.373 3.513-5.32a21.8 21.8 0 0 0 1.53-5.58h11.62v25.02ZM43.919 28h7.408L44.06 7.05h
-.14V28Zm15.128 1 4.752 13.82h.14L68.69 29h-9.644Zm11.008-1h7.534V6.56h-.14L70.055 28Zm87.692 1h10.134c1.946.431 3.491 1.421 4.636 2.97 1.586 2.147 2.38 5.087 2.38 8.82 0 2.613-.234 4.783-.7 6.51-.467 1.727-1.214 3.127-2.24 4.2-.98 1.027-2.264 1.75-3.85 2.17-1.54.42-3.407.63-5.6.63-1.26 0-2.24-.023-2.94-.07a31.28 31.28 0 0 0-1.82-
.21V29Zm6.44-1.23h-6.44V6.14c.606-.093 1.33-.14 2.17-.14.886-.047 1.75-.07 2.59-.07 1.213 0 2.426.117 3.64.35 1.26.233 2.38.723 3.36 1.47 1.026.747 1.843 1.867 2.45 3.36.653 1.447.98 3.383.98 5.81 0 2.147-.21 3.92-.63 5.32-.42 1.4-1.027 2.52-1.82 3.36a6.134 6.134 0 0 1-2.73 1.68c-1.074.327-2.264.49-3.57.49Zm25.623.68c5.712-.367 10.
032-2.051 12.959-5.054 2.927-3.003 4.735-6.735 5.424-11.196-5.879.367-10.275 2.11-13.189 5.228-2.914 3.12-4.645 6.793-5.194 11.022Zm9.117-1.05c.93.4 1.893.975 2.889 1.725.996.75 1.827 1.508 2.491 2.275 2.192.067 4.467-.267 6.825-1a34.71 34.71 0 0 0 6.875-3 34.698 34.698 0 0 0-6.875-3c-2.358-.733-4.633-1.067-6.825-1-.664.767-1.503 1.5-
2.516 2.2-1.013.7-1.968 1.3-2.864 1.8Zm-8.569 2.15a26.146 26.146 0 0 0 2.366 4.95 16.022 16.022 0 0 0 3.537 4.025c1.412 1.15 3.097 2.092 5.057 2.825 1.959.733 4.251 1.15 6.875 1.25-.465-3.4-1.686-6.433-3.662-9.1s-4.335-4.517-7.078-5.55c-1.143.4-2.23.725-3.259.975-1.03.25-2.308.458-3.836.625ZM17.231 33.604c2.927-3.003 7.247-4.687 12.96-5.054-.
55 4.229-2.281 7.903-5.195 11.022-2.914 3.118-7.31 4.861-13.189 5.228.689-4.461 2.497-8.193 5.424-11.196Zm.953-5.729c.996.75 1.96 1.325 2.89 1.725-.897.5-1.852 1.1-2.865 1.8-1.013.7-1.852 1.433-2.516 2.2-2.192.067-4.467-.267-6.825-1a34.713 34.713 0 0 1-6.875-3 34.702 34.702 0 0 1 6.875-3c2.358-.733 4.633-1.067 6.825-1 .664.767 1.495 1.525 2.49 
2.275Zm9.092-5.375a26.105 26.105 0 0 1 2.366 4.95c-1.527.167-2.806.375-3.836.625-1.03.25-2.116.575-3.259.975-2.742-1.033-5.102-2.883-7.078-5.55s-3.197-5.7-3.662-9.1c2.624.1 4.915.517 6.875 1.25s3.645 1.675 5.057 2.825a16 16 0 0 1 3.537 4.025Z" clip-rule="evenodd"/>
</svg>