<svg width="220" height="60" viewBox="0 0 220 60" fill="none" xmlns="http://www.w3.org/2000/svg">
<path fill-rule="evenodd" clip-rule="evenodd" d="M42.8689 54.02H35.0989V55H51.6889V54.02H43.9189V29H51.6742L60.7189 55.07L69.7099 29H77.5889V54.02H69.8189V55H92.3589V54.02H84.5889V29H104.057V54.02H96.2871V55H118.827V54.02H111.057V29.8H116.727C118.407 29.8 119.76 30.1033 120.787 30.71C121.86 31.27 122.7 32.04 123.307 33.02C123.96 34 124.45 35.12 124.777 36.38C125.15 37.64 125.5 38.9466 125.827 40.3H126.597V29H150.747V54.02H142.977V55H155.227H157.607C158.353 55.0466 159.077 55.0933 159.777 55.14C160.477 55.1866 161.13 55.21 161.737 55.21C162.39 55.2566 163.043 55.28 163.697 55.28C166.917 55.28 169.74 54.93 172.167 54.23C174.593 53.4833 176.6 52.48 178.187 51.22C179.773 49.96 180.963 48.4666 181.757 46.74C182.55 44.9666 182.947 43.03 182.947 40.93C182.947 38.9233 182.503 37.15 181.617 35.61C180.73 34.07 179.563 32.7866 178.117 31.76C176.717 30.6866 175.13 29.87 173.357 29.31C173.04 29.1988 172.725 29.0955 172.41 29H188.942C189.729 31.3357 190.674 33.3607 191.778 35.075C192.99 36.9583 194.401 38.5083 196.012 39.725C197.623 40.9416 199.417 41.875 201.393 42.525C203.369 43.175 205.511 43.5666 207.819 43.7L209.389 43.8L209.289 42.35C209.189 40.85 208.716 39.125 207.869 37.175C207.022 35.225 206.134 33.6833 205.204 32.55C207.628 32.4833 210.23 31.9834 213.01 31.0502C215.789 30.1169 218.119 28.9002 220 27.4C218.119 25.8997 215.806 24.683 213.06 23.7498C210.313 22.8166 207.728 22.3166 205.303 22.25C206.366 21.0166 207.271 19.3916 208.019 17.375C208.766 15.3583 209.189 13.6833 209.289 12.35L209.389 11L207.919 11.1C204.681 11.3333 201.899 11.9916 199.574 13.075C197.249 14.1583 195.323 15.5 193.795 17.1C192.267 18.7 191.096 20.4732 190.282 22.4198C189.508 24.2677 188.998 26.1277 188.751 28H168.646C170.135 27.797 171.565 27.417 172.937 26.86C174.43 26.2533 175.737 25.46 176.857 24.48C178.023 23.5 178.933 22.3566 179.587 21.05C180.287 19.7433 180.637 18.32 180.637 16.78C180.637 15.66 180.403 14.4233 179.937 13.07C179.47 11.67 178.607 10.3866 177.347 9.21995C176.087 8.00662 174.36 7.00329 172.167 6.20995C169.973 5.36995 167.173 4.94995 163.767 4.94995C163.113 4.94995 162.437 4.97328 161.737 5.01995H159.567L157.327 5.15995H155.227H142.977V6.13995H150.747V28H126.597V18.53H125.827C125.314 20.63 124.777 22.3566 124.217 23.71C123.704 25.0166 123.05 26.0666 122.257 26.86C121.783 27.334 121.243 27.714 120.637 28H111.057V6.13995H122.677C124.59 6.13995 126.224 6.37329 127.577 6.83995C128.93 7.30662 130.097 8.02995 131.077 9.00995C132.057 9.94329 132.897 11.11 133.597 12.5099C134.297 13.8633 134.95 15.45 135.557 17.27H136.327V5.15995H96.2871V6.13995H104.057V28H84.5889V6.13995H92.3589V5.15995H76.8889L69.035 28H58.7028L50.8489 5.15995H35.0989V6.13995H42.8689V28H31.0581C30.2711 25.6642 29.3259 23.6392 28.2224 21.925C27.0101 20.0416 25.5986 18.4916 23.9878 17.275C22.377 16.0583 20.5835 15.125 18.6074 14.475C16.6312 13.825 14.4891 13.4333 12.181 13.3L10.6114 13.2L10.7111 14.65C10.8107 16.15 11.284 17.875 12.1309 19.825C12.9778 21.775 13.8663 23.3166 14.7962 24.45C12.3717 24.5166 9.76966 25.0166 6.99014 25.9498C4.21061 26.883 1.88056 28.0997 0 29.6C1.88056 31.1002 4.194 32.3169 6.94032 33.2502C9.68663 34.1834 12.2721 34.6833 14.6966 34.75C13.6338 35.9833 12.7287 37.6083 11.9814 39.625C11.2342 41.6416 10.8107 43.3166 10.7111 44.65L10.6114 46L12.0814 45.9C15.3194 45.6666 18.1009 45.0083 20.4257 43.925C22.7506 42.8416 24.677 41.5 26.2047 39.9C27.7325 38.3 28.9037 36.5267 29.7184 34.5802C30.4918 32.7323 31.0019 30.8722 31.2489 29H42.8689V54.02ZM43.9189 28H51.3273L44.0589 7.04995H43.9189V28ZM59.0467 29L63.7989 42.82H63.9389L68.6912 29H59.0467ZM70.0547 28H77.5889V6.55995H77.4489L70.0547 28ZM157.747 29H167.881C169.827 29.4314 171.372 30.4214 172.517 31.97C174.103 34.1166 174.897 37.0566 174.897 40.79C174.897 43.4033 174.663 45.5733 174.197 47.3C173.73 49.0266 172.983 50.4266 171.957 51.5C170.977 52.5266 169.693 53.25 168.107 53.67C166.567 54.09 164.7 54.3 162.507 54.3C161.247 54.3 160.267 54.2766 159.567 54.23C158.913 54.1366 158.307 54.0666 157.747 54.02V29ZM164.187 27.77H157.747V6.13995C158.353 6.04662 159.077 5.99995 159.917 5.99995C160.803 5.95328 161.667 5.92995 162.507 5.92995C163.72 5.92995 164.933 6.04662 166.147 6.27995C167.407 6.51328 168.527 7.00328 169.507 7.74995C170.533 8.49662 171.35 9.61662 171.957 11.11C172.61 12.5566 172.937 14.4933 172.937 16.92C172.937 19.0666 172.727 20.84 172.307 22.24C171.887 23.64 171.28 24.76 170.487 25.6C169.74 26.3933 168.83 26.9533 167.757 27.28C166.683 27.6066 165.493 27.77 164.187 27.77ZM189.81 28.45C195.522 28.0833 199.842 26.3986 202.769 23.3959C205.696 20.3931 207.504 16.6612 208.193 12.2C202.314 12.5666 197.918 14.3094 195.004 17.4283C192.09 20.5471 190.359 24.221 189.81 28.45ZM198.927 27.4C199.857 27.8 200.82 28.375 201.816 29.125C202.812 29.875 203.643 30.6333 204.307 31.4C206.499 31.4666 208.774 31.1333 211.132 30.4C213.49 29.6666 215.782 28.6666 218.007 27.4C215.782 26.1333 213.49 25.1333 211.132 24.4C208.774 23.6666 206.499 23.3333 204.307 23.4C203.643 24.1666 202.804 24.9 201.791 25.6C200.778 26.3 199.823 26.9 198.927 27.4ZM190.358 29.55C190.989 31.3166 191.778 32.9666 192.724 34.5C193.671 36.0333 194.85 37.375 196.261 38.525C197.673 39.675 199.358 40.6166 201.318 41.35C203.277 42.0833 205.569 42.5 208.193 42.6C207.728 39.2 206.507 36.1666 204.531 33.5C202.555 30.8333 200.196 28.9833 197.453 27.95C196.31 28.35 195.223 28.675 194.194 28.925C193.164 29.175 191.886 29.3833 190.358 29.55ZM17.2308 33.6041C20.1579 30.6013 24.4777 28.9166 30.1902 28.55C29.6412 32.7789 27.9098 36.4528 24.9959 39.5717C22.082 42.6905 17.6857 44.4333 11.8071 44.8C12.4958 40.3388 14.3037 36.6068 17.2308 33.6041ZM18.1839 27.875C19.1803 28.625 20.1434 29.2 21.0734 29.6C20.1766 30.1 19.2218 30.7 18.2088 31.4C17.1958 32.1 16.3572 32.8333 15.6929 33.6C13.5009 33.6666 11.2259 33.3333 8.86776 32.6C6.50967 31.8666 4.218 30.8666 1.99276 29.6C4.218 28.3333 6.50967 27.3333 8.86776 26.6C11.2259 25.8666 13.5009 25.5333 15.6929 25.6C16.3572 26.3666 17.1875 27.125 18.1839 27.875ZM27.2758 22.5C28.2224 24.0333 29.0112 25.6833 29.6422 27.45C28.1145 27.6166 26.8358 27.825 25.8062 28.075C24.7766 28.325 23.6904 28.65 22.5475 29.05C19.8045 28.0166 17.4449 26.1666 15.4688 23.5C13.4926 20.8333 12.2721 17.8 11.8071 14.4C14.4309 14.5 16.7225 14.9166 18.6821 15.65C20.6416 16.3833 22.3272 17.325 23.7387 18.475C25.1502 19.625 26.3293 20.9666 27.2758 22.5Z" fill="black"/>
</svg>
